<svg width="512" height="512" viewBox="0 0 512 512" xmlns="http://www.w3.org/2000/svg" role="img" aria-label="Nexwork logo">
  <rect width="512" height="512" fill="transparent"/>
  <g fill="none" stroke="#000000" stroke-linecap="round" stroke-linejoin="round">
    <path d="M 108 198 C 188 198, 198 198, 228 252" stroke-width="28"/>
    <path d="M 108 256 L 372 256" stroke-width="28"/>
    <path d="M 248 256 C 268 196, 292 168, 340 168" stroke-width="28"/>
    <path d="M 156 256 C 196 256, 212 286, 212 330 C 212 376, 250 406, 312 406" stroke-width="28"/>
    <path d="M 354 224 L 412 282" stroke-width="28"/>
    <path d="M 354 340 L 412 282" stroke-width="28"/>
  </g>
  <circle cx="104" cy="194" r="38" fill="#000000"/>
  <circle cx="104" cy="256" r="38" fill="#000000"/>
  <circle cx="352" cy="168" r="38" fill="#000000"/>
  <circle cx="352" cy="406" r="38" fill="#000000"/>
  <circle cx="352" cy="168" r="18" fill="#ffffff"/>
  <circle cx="352" cy="406" r="18" fill="#ffffff"/>
</svg>
